<svg xmlns="http://www.w3.org/2000/svg" width="1280" height="300" viewBox="0 0 1280 300" role="img" aria-label="iThorgrim">
  <defs>
    <linearGradient id="bg" x1="0" y1="0" x2="0" y2="300" gradientUnits="userSpaceOnUse">
      <stop offset="0" stop-color="#0e1118"/><stop offset="1" stop-color="#0a0b10"/>
    </linearGradient>
    <linearGradient id="rule" x1="0" y1="0" x2="1280" y2="0" gradientUnits="userSpaceOnUse">
      <stop offset="0" stop-color="#2de2ff" stop-opacity="0"/>
      <stop offset="0.5" stop-color="#2de2ff" stop-opacity="0.9"/>
      <stop offset="1" stop-color="#2de2ff" stop-opacity="0"/>
    </linearGradient>
  </defs>
  <rect width="1280" height="300" fill="url(#bg)"/>
  <g stroke="#2de2ff" stroke-width="1" opacity="0.05">
    <line x1="0" y1="0" x2="0" y2="300"/>
    <line x1="48" y1="0" x2="48" y2="300"/>
    <line x1="96" y1="0" x2="96" y2="300"/>
    <line x1="144" y1="0" x2="144" y2="300"/>
    <line x1="192" y1="0" x2="192" y2="300"/>
    <line x1="240" y1="0" x2="240" y2="300"/>
    <line x1="288" y1="0" x2="288" y2="300"/>
    <line x1="336" y1="0" x2="336" y2="300"/>
    <line x1="384" y1="0" x2="384" y2="300"/>
    <line x1="432" y1="0" x2="432" y2="300"/>
    <line x1="480" y1="0" x2="480" y2="300"/>
    <line x1="528" y1="0" x2="528" y2="300"/>
    <line x1="576" y1="0" x2="576" y2="300"/>
    <line x1="624" y1="0" x2="624" y2="300"/>
    <line x1="672" y1="0" x2="672" y2="300"/>
    <line x1="720" y1="0" x2="720" y2="300"/>
    <line x1="768" y1="0" x2="768" y2="300"/>
    <line x1="816" y1="0" x2="816" y2="300"/>
    <line x1="864" y1="0" x2="864" y2="300"/>
    <line x1="912" y1="0" x2="912" y2="300"/>
    <line x1="960" y1="0" x2="960" y2="300"/>
    <line x1="1008" y1="0" x2="1008" y2="300"/>
    <line x1="1056" y1="0" x2="1056" y2="300"/>
    <line x1="1104" y1="0" x2="1104" y2="300"/>
    <line x1="1152" y1="0" x2="1152" y2="300"/>
    <line x1="1200" y1="0" x2="1200" y2="300"/>
    <line x1="1248" y1="0" x2="1248" y2="300"/>
  </g>
  <g stroke="#ffffff" stroke-width="1" opacity="0.018">
    <line x1="0" y1="0" x2="1280" y2="0"/>
    <line x1="0" y1="4" x2="1280" y2="4"/>
    <line x1="0" y1="8" x2="1280" y2="8"/>
    <line x1="0" y1="12" x2="1280" y2="12"/>
    <line x1="0" y1="16" x2="1280" y2="16"/>
    <line x1="0" y1="20" x2="1280" y2="20"/>
    <line x1="0" y1="24" x2="1280" y2="24"/>
    <line x1="0" y1="28" x2="1280" y2="28"/>
    <line x1="0" y1="32" x2="1280" y2="32"/>
    <line x1="0" y1="36" x2="1280" y2="36"/>
    <line x1="0" y1="40" x2="1280" y2="40"/>
    <line x1="0" y1="44" x2="1280" y2="44"/>
    <line x1="0" y1="48" x2="1280" y2="48"/>
    <line x1="0" y1="52" x2="1280" y2="52"/>
    <line x1="0" y1="56" x2="1280" y2="56"/>
    <line x1="0" y1="60" x2="1280" y2="60"/>
    <line x1="0" y1="64" x2="1280" y2="64"/>
    <line x1="0" y1="68" x2="1280" y2="68"/>
    <line x1="0" y1="72" x2="1280" y2="72"/>
    <line x1="0" y1="76" x2="1280" y2="76"/>
    <line x1="0" y1="80" x2="1280" y2="80"/>
    <line x1="0" y1="84" x2="1280" y2="84"/>
    <line x1="0" y1="88" x2="1280" y2="88"/>
    <line x1="0" y1="92" x2="1280" y2="92"/>
    <line x1="0" y1="96" x2="1280" y2="96"/>
    <line x1="0" y1="100" x2="1280" y2="100"/>
    <line x1="0" y1="104" x2="1280" y2="104"/>
    <line x1="0" y1="108" x2="1280" y2="108"/>
    <line x1="0" y1="112" x2="1280" y2="112"/>
    <line x1="0" y1="116" x2="1280" y2="116"/>
    <line x1="0" y1="120" x2="1280" y2="120"/>
    <line x1="0" y1="124" x2="1280" y2="124"/>
    <line x1="0" y1="128" x2="1280" y2="128"/>
    <line x1="0" y1="132" x2="1280" y2="132"/>
    <line x1="0" y1="136" x2="1280" y2="136"/>
    <line x1="0" y1="140" x2="1280" y2="140"/>
    <line x1="0" y1="144" x2="1280" y2="144"/>
    <line x1="0" y1="148" x2="1280" y2="148"/>
    <line x1="0" y1="152" x2="1280" y2="152"/>
    <line x1="0" y1="156" x2="1280" y2="156"/>
    <line x1="0" y1="160" x2="1280" y2="160"/>
    <line x1="0" y1="164" x2="1280" y2="164"/>
    <line x1="0" y1="168" x2="1280" y2="168"/>
    <line x1="0" y1="172" x2="1280" y2="172"/>
    <line x1="0" y1="176" x2="1280" y2="176"/>
    <line x1="0" y1="180" x2="1280" y2="180"/>
    <line x1="0" y1="184" x2="1280" y2="184"/>
    <line x1="0" y1="188" x2="1280" y2="188"/>
    <line x1="0" y1="192" x2="1280" y2="192"/>
    <line x1="0" y1="196" x2="1280" y2="196"/>
    <line x1="0" y1="200" x2="1280" y2="200"/>
    <line x1="0" y1="204" x2="1280" y2="204"/>
    <line x1="0" y1="208" x2="1280" y2="208"/>
    <line x1="0" y1="212" x2="1280" y2="212"/>
    <line x1="0" y1="216" x2="1280" y2="216"/>
    <line x1="0" y1="220" x2="1280" y2="220"/>
    <line x1="0" y1="224" x2="1280" y2="224"/>
    <line x1="0" y1="228" x2="1280" y2="228"/>
    <line x1="0" y1="232" x2="1280" y2="232"/>
    <line x1="0" y1="236" x2="1280" y2="236"/>
    <line x1="0" y1="240" x2="1280" y2="240"/>
    <line x1="0" y1="244" x2="1280" y2="244"/>
    <line x1="0" y1="248" x2="1280" y2="248"/>
    <line x1="0" y1="252" x2="1280" y2="252"/>
    <line x1="0" y1="256" x2="1280" y2="256"/>
    <line x1="0" y1="260" x2="1280" y2="260"/>
    <line x1="0" y1="264" x2="1280" y2="264"/>
    <line x1="0" y1="268" x2="1280" y2="268"/>
    <line x1="0" y1="272" x2="1280" y2="272"/>
    <line x1="0" y1="276" x2="1280" y2="276"/>
    <line x1="0" y1="280" x2="1280" y2="280"/>
    <line x1="0" y1="284" x2="1280" y2="284"/>
    <line x1="0" y1="288" x2="1280" y2="288"/>
    <line x1="0" y1="292" x2="1280" y2="292"/>
    <line x1="0" y1="296" x2="1280" y2="296"/>
    <line x1="0" y1="300" x2="1280" y2="300"/>
  </g>
  <path d="M18 40 L18 18 L40 18" fill="none" stroke="#2de2ff" stroke-width="2" opacity="0.8"/>
  <path d="M1262 40 L1262 18 L1240 18" fill="none" stroke="#2de2ff" stroke-width="2" opacity="0.8"/>
  <path d="M18 260 L18 282 L40 282" fill="none" stroke="#2de2ff" stroke-width="2" opacity="0.8"/>
  <path d="M1262 260 L1262 282 L1240 282" fill="none" stroke="#2de2ff" stroke-width="2" opacity="0.8"/>
  <text x="40" y="44" font-family="'Courier New',monospace" font-size="13" letter-spacing="2" fill="#2de2ff" opacity="0.75">SYS://KIJI.DEV</text>
  <text x="1240" y="44" font-family="'Courier New',monospace" font-size="13" letter-spacing="2" fill="#56657a" text-anchor="end">// REV.2026</text>
  <g fill="#56657a" opacity="0.5">
    <rect x="560" y="34" width="3" height="10"/>
    <rect x="565" y="34" width="1" height="10"/>
    <rect x="568" y="34" width="2" height="10"/>
    <rect x="572" y="34" width="4" height="10"/>
    <rect x="578" y="34" width="1" height="10"/>
    <rect x="581" y="34" width="2" height="10"/>
    <rect x="585" y="34" width="1" height="10"/>
    <rect x="588" y="34" width="3" height="10"/>
    <rect x="593" y="34" width="2" height="10"/>
    <rect x="597" y="34" width="1" height="10"/>
    <rect x="600" y="34" width="4" height="10"/>
    <rect x="606" y="34" width="2" height="10"/>
    <rect x="610" y="34" width="1" height="10"/>
    <rect x="613" y="34" width="1" height="10"/>
    <rect x="616" y="34" width="3" height="10"/>
    <rect x="621" y="34" width="2" height="10"/>
    <rect x="625" y="34" width="3" height="10"/>
    <rect x="630" y="34" width="1" height="10"/>
    <rect x="633" y="34" width="2" height="10"/>
    <rect x="637" y="34" width="4" height="10"/>
    <rect x="643" y="34" width="1" height="10"/>
    <rect x="646" y="34" width="2" height="10"/>
    <rect x="650" y="34" width="1" height="10"/>
    <rect x="653" y="34" width="3" height="10"/>
    <rect x="658" y="34" width="2" height="10"/>
    <rect x="662" y="34" width="1" height="10"/>
    <rect x="665" y="34" width="4" height="10"/>
    <rect x="671" y="34" width="2" height="10"/>
    <rect x="675" y="34" width="1" height="10"/>
    <rect x="678" y="34" width="1" height="10"/>
    <rect x="681" y="34" width="3" height="10"/>
    <rect x="686" y="34" width="2" height="10"/>
  </g>
  <text x="643.0" y="168" font-family="'Courier New',monospace" font-size="86" font-weight="bold" letter-spacing="4" text-anchor="middle" fill="#ff2e57" opacity="0.85">iThorgrim</text>
  <text x="637.0" y="168" font-family="'Courier New',monospace" font-size="86" font-weight="bold" letter-spacing="4" text-anchor="middle" fill="#2de2ff" opacity="0.85">iThorgrim</text>
  <text x="640.0" y="168" font-family="'Courier New',monospace" font-size="86" font-weight="bold" letter-spacing="4" text-anchor="middle" fill="#e6edf3">iThorgrim</text>
  <rect x="290" y="196" width="700" height="2" fill="url(#rule)"/>
  <circle cx="640" cy="197" r="4" fill="#2de2ff"/>
  <circle cx="640" cy="197" r="8" fill="none" stroke="#2de2ff" stroke-width="1" opacity="0.5"/>
  <text x="640.0" y="240" font-family="'Courier New',monospace" font-size="16" letter-spacing="6" text-anchor="middle" fill="#2de2ff">LUA DEVELOPER &#160;//&#160; OPEN-SOURCE &#160;//&#160; WOW EMULATION</text>
</svg>
